<svg width="33" height="32" viewBox="0 0 33 32" fill="none" xmlns="http://www.w3.org/2000/svg">
<path d="M28.5 24V24.75C28.5 26.4069 27.1569 27.75 25.5 27.75H20.25" stroke="white" stroke-width="3"/>
<path d="M18.75 30H14.25C13.0074 30 12 28.9926 12 27.75C12 26.5074 13.0074 25.5 14.25 25.5H18.75C19.9926 25.5 21 26.5074 21 27.75C21 28.9926 19.9926 30 18.75 30Z" stroke="white" stroke-width="3"/>
<path d="M31.5 20.1576V17.3424C31.5 15.9657 30.5631 14.7659 29.2276 14.432L26.6183 13.7796C26.0502 13.6376 25.5 14.0672 25.5 14.6528V22.8473C25.5 23.4329 26.0502 23.8625 26.6183 23.7205L29.2276 23.0681C30.5631 22.7342 31.5 21.5343 31.5 20.1576Z" stroke="white" stroke-width="3"/>
<path d="M1.5 20.1576V17.3424C1.5 15.9657 2.43689 14.7659 3.7724 14.432L6.38172 13.7796C6.94975 13.6376 7.5 14.0672 7.5 14.6528V22.8473C7.5 23.4329 6.94975 23.8625 6.38172 23.7205L3.7724 23.0681C2.43689 22.7342 1.5 21.5343 1.5 20.1576Z" stroke="white" stroke-width="3"/>
<path d="M28.5 13.5C28.5 6.87258 23.1275 1.5 16.5 1.5C9.87258 1.5 4.5 6.87258 4.5 13.5" stroke="white" stroke-width="3" stroke-linecap="round" stroke-linejoin="round"/>
</svg>
