<svg width="25" height="25" viewBox="0 0 25 25" fill="none" xmlns="http://www.w3.org/2000/svg">
<path d="M9.74518 0.510639C9.09091 0.788927 7.95455 1.62379 7.2314 2.31951C4.64876 4.85889 4.37328 8.92886 6.64601 12.0596L7.57576 13.3815L6.06061 14.2163C3.06474 15.8165 0.65427 19.469 0.241047 23.0868L0 25H12.5H25L24.759 23.1911C24.2769 19.4342 21.9008 15.8165 18.9394 14.2163L17.4242 13.4163L18.4573 11.9205C19.5937 10.2855 20.0069 7.71135 19.5937 5.3459C19.2837 3.78053 17.2521 1.44986 15.427 0.614998C13.7741 -0.150295 11.3636 -0.219868 9.74518 0.510639ZM14.4628 3.0848C17.1143 4.26753 18.1129 7.50263 16.6322 9.93765C15.7713 11.3639 14.7383 12.0248 13.0165 12.3031C9.19421 12.8945 6.33609 8.30271 8.36777 4.89368C9.02204 3.78053 11.3292 2.38909 12.5 2.38909C12.7755 2.38909 13.6708 2.70216 14.4628 3.0848ZM15.2893 15.4686C18.5262 16.4079 21.0055 18.7037 21.7975 21.4518L22.1074 22.565H12.5H2.89256L3.20248 21.5214C4.0978 18.3559 6.74931 16.06 10.4339 15.2599C12.3623 14.8425 13.292 14.8773 15.2893 15.4686Z" fill="#999999"/>
</svg>
